<svg width="945" height="884" viewBox="0 0 945 884" fill="none" xmlns="http://www.w3.org/2000/svg">
<g filter="url(#filter0_f)">
<circle cx="460.5" cy="417.5" r="205.5" fill="#D7969E"/>
</g>
<g filter="url(#filter1_b)">
<path fill-rule="evenodd" clip-rule="evenodd" d="M945 0H0V885H945V0ZM662.811 210.976C673.054 215.169 674.082 217.044 675.109 224.7L678.271 224.764V198.459H675.109C673.971 207.847 672.944 209.213 666.336 206.703C651.952 201.255 633.442 193.71 618.757 187.642C637.662 180.447 660.314 172.091 668.613 169.232C672.833 167.628 674.192 168.089 675.109 176.555H678.271V147.503H675.109C674.43 154.476 673.291 156.445 664.866 159.622C648.016 166.151 621.381 175.983 603.06 182.734V186.498C614.148 190.903 640.051 201.589 654.292 207.465L654.365 207.495C658.219 209.085 661.211 210.319 662.811 210.976ZM604.309 273.384H607.471C608.482 282.756 608.941 283.677 618.536 283.677H663.839C673.623 283.677 674.082 282.756 675.109 273.384H678.271V304.041H675.109C674.082 294.51 673.623 293.621 663.839 293.621H618.646C608.862 293.621 608.514 294.542 607.581 304.041H604.42L604.309 273.384ZM603.567 417.058C603.476 418.213 603.391 419.282 603.391 420.488L606.569 420.949C607.42 417.691 609.246 414.774 611.801 412.593C615.494 409.312 619.414 406.298 623.53 403.571C628.651 400.124 636.27 395.216 639.811 393.151C643.447 401.554 649.596 407.908 659.38 407.908C662.344 408.039 665.29 407.389 667.926 406.024C670.563 404.659 672.799 402.625 674.413 400.124C677.258 395.788 678.286 390.181 678.286 381.826V352.662H675.124C674.081 361.7 673.733 362.955 664.059 362.955H618.645C609.05 362.955 608.592 362.193 607.58 352.662H604.419V383.271H607.58C608.402 374.122 608.971 372.851 618.645 372.851H636.523V376.87C636.523 382.636 635.844 384.113 632.192 386.4C630.487 387.479 628.662 388.596 626.789 389.743L626.785 389.746C622.287 392.5 617.508 395.427 613.413 398.409C606.363 403.444 604.198 407.908 603.629 416.263C603.62 416.374 603.612 416.484 603.603 416.593C603.591 416.748 603.579 416.902 603.567 417.054L603.567 417.058ZM643.731 390.864C641.344 388.005 640.443 384.24 640.443 378.284V372.851H668.327C671.283 372.851 672.421 373.201 673.212 374.233C673.907 375.027 674.35 376.981 674.35 380.301C674.35 389.101 669.924 397.218 657.736 397.218C651.635 397.218 647.035 395.327 643.731 390.864ZM675.109 550.768C674.303 543.462 673.165 541.047 667.933 540.714C667.741 540.707 667.546 540.7 667.347 540.693L666.693 540.669C663.181 540.541 658.355 540.364 648.964 540.364H603.313V536.012L662.811 487.073H634.358C624.115 487.073 618.994 487.406 615.69 487.644C609.889 487.867 608.182 490.726 607.502 498.954H604.341V471.173H607.502C608.071 478.257 609.778 481.005 615.406 481.465C619.057 481.799 624.179 482.037 634.532 482.037H663.491C666.652 482.037 668.502 481.799 671.015 479.75C673.86 477.574 674.54 475.175 675.109 469.568H678.271V486.723L621.017 535.218H648.933C659.508 535.218 664.408 534.995 667.822 534.646C672.944 534.296 674.54 531.676 675.109 522.526H678.271V550.768H675.109ZM607.471 646.628H604.31L604.215 674.806H607.376C608.277 666.689 609.194 665.657 619.089 662.004C638.785 654.856 660.299 646.961 679.757 639.766L679.078 636.096L619.327 612.429C609.083 608.426 608.277 606.599 607.376 599.388H604.215V625.803H607.376C608.562 616.432 609.463 614.827 616.861 617.337C619.693 618.296 622.391 619.294 625.195 620.331C627.086 621.031 629.025 621.748 631.087 622.484V647.199C624.462 649.419 618.959 651.461 614.781 653.012C614.443 653.138 614.114 653.26 613.794 653.378C609.51 654.967 608.372 654.061 607.471 646.628ZM635.845 624.199C644.839 627.63 655.193 631.522 664.977 635.191L635.845 645.595V624.199Z" fill="white" fill-opacity="0.85"/>
</g>
<defs>
<filter id="filter0_f" x="55" y="12" width="811" height="811" filterUnits="userSpaceOnUse" color-interpolation-filters="sRGB">
<feFlood flood-opacity="0" result="BackgroundImageFix"/>
<feBlend mode="normal" in="SourceGraphic" in2="BackgroundImageFix" result="shape"/>
<feGaussianBlur stdDeviation="100" result="effect1_foregroundBlur"/>
</filter>
<filter id="filter1_b" x="-40" y="-40" width="1025" height="965" filterUnits="userSpaceOnUse" color-interpolation-filters="sRGB">
<feFlood flood-opacity="0" result="BackgroundImageFix"/>
<feGaussianBlur in="BackgroundImage" stdDeviation="20"/>
<feComposite in2="SourceAlpha" operator="in" result="effect1_backgroundBlur"/>
<feBlend mode="normal" in="SourceGraphic" in2="effect1_backgroundBlur" result="shape"/>
</filter>
</defs>
</svg>
