<svg width="120" height="16" viewBox="0 0 120 16" fill="none" xmlns="http://www.w3.org/2000/svg">
<g clip-path="url(#clip0)">
<path d="M16.0841 0.994374C14.4889 1.20837 14.0984 1.42236 13.2247 3.55569C12.5827 5.11948 9.29303 13.0602 8.12478 16.0001H7.34044C5.9339 12.1845 3.88534 6.63717 2.52514 3.1277C1.86324 1.37297 1.45286 1.13594 0 0.994374V0.335938H6.05305V0.994374C4.28909 1.18532 4.19312 1.46844 4.52737 2.34746C5.12308 4.07585 6.86387 8.79355 8.36307 12.731C9.62729 9.67256 11.1993 5.81742 12.3344 2.82153C12.8573 1.4454 12.5727 1.23141 10.6168 0.994374V0.335938H16.0973L16.0841 0.994374Z" fill="black"/>
<path d="M26.2272 15.74V15.0816C28.1798 14.8709 28.3718 14.7754 28.3718 12.7771V3.3417C28.3718 1.30384 28.1798 1.20837 26.2272 0.994374V0.335938H32.6145V0.994374C30.6288 1.20837 30.4435 1.30384 30.4435 3.3417V12.754C30.4435 14.7919 30.6355 14.8643 32.6145 15.0586V15.717L26.2272 15.74Z" fill="black"/>
<path d="M56.8762 15.9309C56.5684 15.9309 56.3037 15.9045 55.9959 15.8815C54.2551 15.763 53.3251 15.3119 52.276 13.8436C51.3957 12.6354 50.5386 11.1407 49.7741 9.93252C49.2975 9.17202 48.9897 9.03046 47.7884 9.03046H46.9511V12.7539C46.9511 14.7687 47.2159 14.8873 49.1221 15.0584V15.7169H42.7448V15.0584C44.7304 14.8477 44.8893 14.7523 44.8893 12.7539V3.29548C44.8893 1.28067 44.6278 1.20824 42.7448 0.990956V0.33252H48.821C50.5617 0.33252 51.73 0.546515 52.6335 1.13911C53.1545 1.47522 53.5783 1.94092 53.8627 2.49008C54.1471 3.03924 54.2824 3.65279 54.2551 4.26996C54.2551 6.30782 52.9313 7.58848 51.1806 8.34569C51.6108 9.08313 52.6335 10.67 53.3516 11.7366C53.9197 12.5939 54.5478 13.4102 55.2314 14.1794C55.6858 14.7115 56.2934 15.0919 56.9722 15.2691L56.8762 15.9309ZM48.0829 8.214C49.324 8.214 50.1083 8.02635 50.704 7.52923C51.634 6.84117 52.0278 5.88314 52.0278 4.61235C52.0278 2.07408 50.3367 1.15227 48.5032 1.15227C47.8116 1.15227 47.4045 1.24445 47.239 1.38931C47.0239 1.55392 46.9511 1.79095 46.9511 2.40659V8.214H48.0829Z" fill="black"/>
<path d="M84.0202 0.994374C82.4979 1.16227 81.9948 1.3993 81.9254 2.48902C81.8989 3.24622 81.8525 4.24375 81.8525 6.43963V15.9475H80.9457L70.7492 3.55569V9.48162C70.7492 11.615 70.8187 12.6816 70.8684 13.3697C70.9147 14.5779 71.5104 14.9335 73.2247 15.075V15.7335H67.4364V15.075C68.9125 14.9565 69.485 14.601 69.581 13.4289C69.6505 12.6684 69.7001 11.6018 69.7001 9.4454V3.41413C69.7001 2.75569 69.6505 2.3705 69.2236 1.84705C68.7702 1.25445 68.2704 1.11289 67.1022 0.994374V0.335938H70.6764L80.7803 12.2602V6.44623C80.7803 4.24376 80.7339 3.22318 80.6611 2.51206C80.5883 1.4454 80.0422 1.11289 78.136 0.994374V0.335938H84.0202V0.994374Z" fill="black"/>
<path d="M103.993 15.7399V15.0815C105.541 14.8939 105.73 14.6568 105.399 13.7646C105.068 12.8725 104.611 11.6544 104.112 10.163H98.9622C98.5816 11.2297 98.2242 12.1383 97.8899 13.126C97.367 14.6667 97.7013 14.8544 99.6539 15.1013V15.7597H94.1502V15.1013C95.6527 14.9136 96.0333 14.7457 96.8673 12.6124L101.798 0.167929L102.563 0.0263672C104.062 4.07904 105.707 8.5597 107.196 12.6618C107.957 14.7227 108.172 14.9136 109.864 15.1013V15.7597L103.993 15.7399ZM101.61 3.10456C100.845 5.14242 100.034 7.2988 99.3196 9.17205H103.777L101.61 3.10456Z" fill="black"/>
</g>
<defs>
<clipPath id="clip0">
<rect width="120" height="16" fill="white"/>
</clipPath>
</defs>
</svg>
